Simulation
nRows=26
nColumns=15
endheader
time  TH_x TH_y TH_z SC_y  SC_z  SC_x  AC_y  AC_z  AC_x  GH_y  GH_z  GH_yy  EL_x  PS_y
0.0  0.000000  0.000000  0.000000  -13.596339281893815  -8.182154308780724  -16.324520622334457  52.51032206931469  17.188734314074456  -9.760391844648368  22.215490936578643  19.170578565323726  -6.988885445985943  23.33996340010542  120.000000
0.026999999999999993  0.000000  0.000000  0.000000  -13.925753635201028  -7.60773845529106  -14.686575329947999  52.50291143304173  15.867227623128715  -10.391337665411077  20.721793013191146  19.344283340876377  -6.205814019168413  23.261088718117506  120.000000
0.053999999999999986  0.000000  0.000000  0.000000  -14.12112565926541  -7.262713869590744  -13.097521220058123  52.60348031916019  14.505568731276334  -10.868748264932101  19.377424242769695  19.539890475149196  -5.369094485733723  23.082393937453872  120.000000
0.08099999999999997  0.000000  0.000000  0.000000  -14.186231368134546  -7.127988492344042  -11.650360441835904  52.7613786961181  13.131008450529682  -11.323258226273845  18.202840896902106  19.752131626737427  -4.4835535021824  22.915388625912634  120.000000
0.10799999999999997  0.000000  0.000000  0.000000  -14.156931397958846  -7.145281085956734  -10.361671744646067  52.931487698191624  11.778437236212238  -11.86683142929252  17.176173143299728  20.01752903561252  -3.583311768414382  22.80493504611004  120.000000
0.13499999999999995  0.000000  0.000000  0.000000  -14.092174587272192  -7.24697657346368  -9.186496201713048  53.03859746783417  10.493854299746733  -12.528206755960886  16.22991158847556  20.3697008612593  -2.70998993670828  22.724690820161282  120.000000
0.16199999999999995  0.000000  0.000000  0.000000  -14.024636205831708  -7.384165417172856  -8.086125564110603  53.04253424375042  9.303316377145956  -13.25537278604865  15.297024259579201  20.82998170173405  -1.8883965677529646  22.636332734439495  120.000000
0.18899999999999995  0.000000  0.000000  0.000000  -13.949309209990338  -7.528278891696439  -7.052546057993478  52.96333104695482  8.195845509719433  -13.98666523441341  14.335734994892077  21.411036666852294  -1.1233649594530724  22.521895091160875  120.000000
0.21599999999999994  0.000000  0.000000  0.000000  -13.854912907091146  -7.656551909701542  -6.090150104534056  52.830878808516474  7.149637536776804  -14.681610241206284  13.324555603855908  22.113801691881044  -0.40692683224424864  22.381874768642664  120.000000
0.24299999999999994  0.000000  0.000000  0.000000  -13.734276484666395  -7.7585760731864015  -5.198969601881128  52.66199449312951  6.1534895204432  -15.320248603057998  12.253455711811377  22.933544164680796  0.2700681310819412  22.221764646695267  120.000000
0.2699999999999999  0.000000  0.000000  0.000000  -13.585431096866358  -7.827685125157761  -4.375245164630636  52.46968445499556  5.205775754860794  -15.895833759670358  11.123036049722348  23.865609726298267  0.913425472225965  22.05138014297823  120.000000
0.29699999999999993  0.000000  0.000000  0.000000  -13.410812726171331  -7.860904774401988  -3.612314872471676  52.26386268681584  4.312766963060848  -16.410367435044325  9.939923216569875  24.904674709559313  1.5225626688565084  21.87903966582328  120.000000
0.3239999999999999  0.000000  0.000000  0.000000  -13.21723536648912  -7.852718916413072  -2.9029957947257077  52.05486731198896  3.4838010271539446  -16.869038411903325  8.715649088899577  26.04386274011536  2.0912758951963446  21.712728562904545  120.000000
0.3509999999999999  0.000000  0.000000  0.000000  -13.01432111403937  -7.79744428173437  -2.2392025462851675  51.85226836121017  2.73004175705875  -17.276918229995683  7.463920250425619  27.273827220483376  2.6081375858455367  21.557428023240156  120.000000
0.3779999999999999  0.000000  0.000000  0.000000  -12.813366042565217  -7.687295086593895  -1.6125495453106986  51.668065740116106  2.0615718573645925  -17.636345556305606  6.20039531908957  28.584110631347485  3.0582583183120486  21.416630166025598  120.000000
0.4049999999999999  0.000000  0.000000  0.000000  -12.625461987834885  -7.515180036249772  -1.0138426890062453  51.515677366131605  1.4871103587598664  -17.94717350458314  4.940731304861322  29.963752406884186  3.4250140063238765  21.291002480446434  120.000000
0.4319999999999999  0.000000  0.000000  0.000000  -12.460928025417584  -7.2742295792440155  -0.4338965006962997  51.40925824922745  1.0120665511029936  -18.20722854887427  3.6996173009124598  31.401396935964364  3.6930429614497777  21.179790723519073  120.000000
0.45899999999999985  0.000000  0.000000  0.000000  -12.3288372977206  -6.960489784801115  0.13554222918945613  51.359333840164176  0.6384652981485611  -18.413997771954996  2.4885598883458364  32.883997116676994  3.8510725300295396  21.080313490255538  120.000000
0.4859999999999999  0.000000  0.000000  0.000000  -12.236907247355475  -6.571895964967549  0.7003894244885978  51.37176186837361  0.3648180239728922  -18.565090282496243  1.315151621988485  34.39716222199712  3.8938280993098418  20.989319962316976  120.000000
0.5129999999999999  0.000000  0.000000  0.000000  -12.190747376582024  -6.108579874499587  1.2646447096678464  51.44758320832942  0.18771323819329633  -18.659097405647753  0.1826209193218728  35.92657447545488  3.8219894220355015  20.90313585198811  120.000000
0.5399999999999998  0.000000  0.000000  0.000000  -12.19480157049324  -5.57230069532482  1.8302563283122415  51.58418220105273  0.10219907804761681  -18.694754157200233  -0.9095230390334252  37.45886105384361  3.640592844349504  20.818377769843412  120.000000
0.5669999999999998  0.000000  0.000000  0.000000  -12.252564049898742  -4.967179934392643  2.3970977215952534  51.776450772940485  0.10286323454497368  -18.670683444123455  -1.9647014560660188  38.98207770504251  3.3566756964187126  20.731893700411277  120.000000
0.5939999999999999  0.000000  0.000000  0.000000  -12.366737109196773  -4.298508867505805  2.963734974557462  52.0194839301834  0.18397042712290718  -18.585015171018565  -2.987797142182768  40.4865128130722  2.9767276969673673  20.641312709001294  120.000000
0.6209999999999999  0.000000  0.000000  0.000000  -12.539284064908  -3.572652547141446  3.5283913892414405  52.309318797560614  0.3408221092106187  -18.435118637872915  -3.9842099742369177  41.964699329844485  2.5053849638541226  20.54509677619487  120.000000
0.6479999999999998  0.000000  0.000000  0.000000  -12.77194192648306  -2.7962760520264265  4.089714044306222  52.64373177322187  0.569406003179298  -18.21787995939959  -4.9589241166231375  43.41042750877658  1.9456461482056977  20.442818890785997  120.000000
0.6749999999999998  0.000000  0.000000  0.000000  -13.06671814333776  -1.9764179365012993  4.647083945062885  53.021699104983384  0.8665045724603383  -17.93022062705199  -5.916048922850571  44.81724817079409  1.3008830689902882  20.335226982154076  120.000000
